<svg xmlns="http://www.w3.org/2000/svg" viewBox="0 0 149 243"><defs><style>.cls-1{opacity:0.5;}.cls-2{fill:#9ca9c2;}.cls-3{fill:#fff;}</style></defs><title>photo_base 副本 2</title><g id="_0_0_0_0_0" data-name="0 0 0 0 0" class="cls-1"><polygon class="cls-2" points="63.07 109.03 64.34 117.01 61.5 132.5 57.56 153.09 49.4 169.61 48.56 173.99 45.29 213.38 41.48 223.54 45.29 229.89 54.18 232.43 57.99 228.62 52.91 212.1 54.18 185.42 60.5 169.5 65.61 152.39 80.86 124.63 84.5 126.5 84.5 155.5 81.5 163.5 80.5 176.5 82.13 187.97 84.5 208.5 78.32 218.46 83.4 222.27 91.02 221 102.46 226.08 110.08 224.81 112.62 221 102.46 217.19 92.3 208.29 91.02 165.1 94.5 151.5 98.5 130.5 97.5 108.5 63.07 109.03"/><polygon class="cls-2" points="61.5 67.5 57.26 69.18 50.9 80.61 45.29 90.14 47.83 106.66 47.83 116.82 57.5 121.5 57.5 128.5 49.5 131.5 43.5 118.5 39.5 95.5 40.2 88.87 43.5 77.5 47.08 65.95 51.5 56.5 62.5 52.5 61.5 67.5"/><polygon class="cls-2" points="89.5 64.5 98.5 79.5 102.46 83.79 107.54 79.97 109.5 75.5 115.34 47.94 111.35 40.59 106.27 38.05 101.19 41.86 105 46.94 111.35 49.48 105.5 69.5 103.73 73.62 97.5 62.5 91.8 55.15 84.5 53.5 89.5 64.5"/><polygon class="cls-2" points="66.89 48.21 62.5 52.5 61.5 67.5 65.5 73.5 70.7 97.6 63.07 109.03 97.5 108.5 90.57 97.86 88.24 81.17 88.5 70.5 89.5 64.5 84.5 53.5 77.05 49.48 66.89 48.21"/><polygon class="cls-2" points="66.89 48.21 65.61 44.4 61.8 39.32 60.53 29.16 63.91 19.08 72.81 16.54 84.67 20.26 87.21 25.34 87.21 32.97 84.67 41.86 80.86 46.94 77.05 45.67 77.05 49.48 66.89 48.21"/><polygon class="cls-3" points="82.04 32.59 82.41 31.12 79.5 31.5 78.74 32.97 82.04 32.59"/></g></svg>