<svg id="_00003" data-name="00003" xmlns="http://www.w3.org/2000/svg" viewBox="0 0 149 243"><defs><style>.cls-1{fill:#9ca9c2;}.cls-2{fill:#fff;}</style></defs><title>photo_base 副本 2</title><polygon class="cls-1" points="61.5 67.5 57.5 71.5 54.5 82.5 45.29 90.14 47.83 106.66 47.83 116.82 57.5 121.5 57.5 128.5 49.5 131.5 43.5 118.5 39.5 95.5 40.2 88.87 37.5 72.5 42.5 58.5 50.5 51.5 58.5 52.5 61.5 67.5"/><polygon class="cls-1" points="89.5 64.5 95 80.62 102.46 83.79 107.54 79.97 109.5 75.5 115.34 47.94 111.35 40.59 106.27 38.05 101.19 41.86 105 46.94 111.35 49.48 105.5 69.5 103.73 73.62 102.5 59.5 93.5 51.5 85.5 52.5 89.5 64.5"/><polygon class="cls-1" points="79.5 124.5 65.61 152.39 60.5 169.5 54.18 185.42 52.91 212.1 57.99 228.62 54.18 232.43 45.29 229.89 41.48 223.54 45.29 213.38 48.56 173.99 49.4 169.61 57.56 153.09 50.5 132.5 54.05 116.29 79.5 124.5"/><polygon class="cls-1" points="103.5 135.5 100.5 108.5 90.57 97.86 88.24 81.17 88.5 70.5 89.5 64.5 85.5 52.5 77.05 49.48 66.89 48.21 58.5 52.5 61.5 67.5 65.5 73.5 70.7 97.6 55.5 105.5 54.05 116.29 79.5 124.5 80.5 127.5 103.5 135.5"/><polygon class="cls-1" points="103.5 135.5 96.5 150.5 91.02 165.1 92.3 208.29 102.46 217.19 112.62 221 110.08 224.81 102.46 226.08 91.02 221 83.4 222.27 78.32 218.46 84.5 208.5 82.13 187.97 80.5 176.5 81.5 163.5 84.5 155.5 80.5 127.5 103.5 135.5"/><polygon class="cls-1" points="77.05 49.48 77.05 45.67 80.86 46.94 84.67 41.86 87.21 32.97 87.21 25.34 84.67 20.26 72.81 16.54 63.91 19.08 60.53 29.16 61.8 39.32 65.61 44.4 66.89 48.21 77.05 49.48"/><polygon class="cls-2" points="82.04 32.59 82.41 31.12 79.5 31.5 78.74 32.97 82.04 32.59"/></svg>