<svg xmlns="http://www.w3.org/2000/svg" viewBox="0 0 149 243"><defs><style>.cls-1{opacity:0.5;}.cls-2{fill:#9ca9c2;}.cls-3{fill:#fff;}</style></defs><title>photo_base 副本 2</title><g id="_0_5_0_0_0" data-name="0 5 0 0 0" class="cls-1"><polygon class="cls-2" points="97.18 95.11 98.18 117.11 94.5 151.5 91.02 165.1 92.3 208.29 102.46 217.19 112.62 221 110.08 224.81 102.46 226.08 91.02 221 83.4 222.27 78.32 218.46 84.5 208.5 82.13 187.97 80.5 176.5 81.5 163.5 84.5 155.5 83.68 112.08 80.04 110.21 65.61 152.39 60.5 169.5 54.18 185.42 52.91 212.1 57.99 228.62 54.18 232.43 45.29 229.89 41.48 223.54 45.29 213.38 48.56 173.99 49.4 169.61 57.56 153.09 61.5 132.5 64.03 103.62 62.76 95.64 97.18 95.11"/><polygon class="cls-2" points="77.05 49.48 77.05 45.67 80.86 46.94 84.67 41.86 87.21 32.97 87.21 25.34 84.67 20.26 72.81 16.54 63.91 19.08 60.53 29.16 61.8 39.32 65.61 44.4 66.89 48.21 77.05 49.48"/><polygon class="cls-2" points="77.05 49.48 84.5 53.5 89.5 64.5 88.5 70.5 88.24 72.44 90.25 84.47 97.18 95.11 62.76 95.64 70.38 84.21 65.5 73.5 61.5 67.5 62.5 52.5 66.89 48.21 77.05 49.48"/><polygon class="cls-2" points="89.5 64.5 98.5 79.5 102.46 83.79 107.54 79.97 109.5 75.5 115.34 47.94 111.35 40.59 106.27 38.05 101.19 41.86 105 46.94 111.35 49.48 105.5 69.5 103.73 73.62 97.5 62.5 91.8 55.15 84.5 53.5 89.5 64.5"/><polygon class="cls-2" points="61.5 67.5 57.26 69.18 50.9 80.61 45.29 90.14 47.83 106.66 47.83 116.82 57.5 121.5 57.5 128.5 49.5 131.5 43.5 118.5 39.5 95.5 40.2 88.87 43.5 77.5 47.08 65.95 51.5 56.5 62.5 52.5 61.5 67.5"/><polygon class="cls-3" points="82.04 32.59 82.41 31.12 79.5 31.5 78.74 32.97 82.04 32.59"/></g></svg>