<svg xmlns="http://www.w3.org/2000/svg" viewBox="0 0 149 243"><defs><style>.cls-1{opacity:0.5;}.cls-2{fill:#9ca9c2;}.cls-3{fill:#fff;}</style></defs><title>photo_base 副本 2</title><g id="_5_0_0_0_0" data-name="5 0 0 0 0" class="cls-1"><polygon class="cls-2" points="89.5 64.5 98.5 79.5 102.46 83.79 107.54 79.97 118.5 73.5 115.34 47.94 111.35 40.59 106.27 38.05 101.19 41.86 105 46.94 111.35 49.48 103.5 69.5 103.73 73.62 97.5 62.5 91.8 55.15 84.5 53.5 89.5 64.5"/><polygon class="cls-2" points="77.05 49.48 77.05 45.67 80.86 46.94 84.67 41.86 87.21 32.97 87.21 25.34 84.67 20.26 72.81 16.54 63.91 19.08 60.53 29.16 61.8 39.32 65.61 44.4 66.89 48.21 77.05 49.48"/><polygon class="cls-2" points="63.07 109.03 70.7 97.6 65.5 73.5 61.5 67.5 62.5 52.5 66.89 48.21 77.05 49.48 84.5 53.5 89.5 64.5 88.5 70.5 88.24 81.17 90.57 97.86 97.5 108.5 63.07 109.03"/><polygon class="cls-2" points="97.5 108.5 98.5 130.5 94.5 151.5 92.5 166.5 92.3 208.29 102.46 217.19 112.62 221 110.08 224.81 102.46 226.08 91.02 221 83.4 222.27 78.32 218.46 82.5 211.5 82.13 187.97 73.5 174.5 75.5 156.5 83.5 151.5 84.5 126.5 80.86 124.63 65.61 152.39 62.5 169.5 56.5 186.5 52.91 212.1 57.99 228.62 54.18 232.43 45.29 229.89 41.48 223.54 45.29 213.38 42.5 176.5 44.5 161.5 57.56 153.09 61.5 132.5 64.34 117.01 63.07 109.03 97.5 108.5"/><polygon class="cls-2" points="61.5 67.5 57.26 69.18 50.9 80.61 45.29 90.14 52.5 98.5 47.83 116.82 57.5 121.5 57.5 128.5 49.5 131.5 43.5 118.5 35.5 98.5 40.2 88.87 43.5 77.5 47.08 65.95 51.5 56.5 62.5 52.5 61.5 67.5"/><polygon class="cls-3" points="82.04 32.59 82.41 31.12 79.5 31.5 78.74 32.97 82.04 32.59"/></g></svg>