<svg xmlns="http://www.w3.org/2000/svg" viewBox="0 0 149 243"><defs><style>.cls-1{fill:#9ca9c2;}.cls-2{fill:#fff;}</style></defs><title>photo_base</title><g id="photo_base"><polygon class="cls-1" points="94.83 77.43 93.56 76.16 92.3 81.25 101.19 92.68 102.46 104.11 99.92 126.98 97.38 147.31 91.02 165.1 92.3 208.29 102.46 217.19 112.62 221 110.08 224.81 102.46 226.08 91.02 221 83.4 222.27 78.32 218.46 82.13 210.83 82.13 187.97 77.56 178.79 78.32 162.56 83.4 151.12 80.86 129.52 80.86 120.63 65.61 152.39 63.07 167.64 54.18 185.42 52.91 212.1 57.99 228.62 54.18 232.43 45.29 229.89 41.48 223.54 45.29 213.38 46.56 173.99 47.4 169.61 57.56 153.09 57.99 132.06 64.34 113.01 63.07 99.03 70.7 87.6 60.53 73.62 59.26 68.54 57.99 71.08 51.64 82.52 45.29 90.14 47.83 106.66 47.83 116.82 47.83 124.44 42.75 133.34 36.39 126.98 42.75 115.55 37.66 95.22 40.2 88.87 40.2 73.62 45.29 60.92 50.37 52.02 57.99 52.02 66.89 48.21 65.61 44.4 61.8 39.32 60.53 29.16 63.91 19.08 72.81 16.54 84.67 20.26 87.21 25.34 87.21 32.97 84.67 41.86 80.86 46.94 77.05 45.67 77.05 49.48 87.21 53.3 93.56 53.3 101.19 60.92 103.73 73.62 103.73 69.81 111.35 49.48 105 46.94 101.19 41.86 106.27 38.05 111.35 40.59 115.34 47.94 111.35 74.89 107.54 79.97 102.46 83.79 97.38 81.25 94.83 77.43"/><polygon class="cls-2" points="82.13 32.97 77.05 31.07 78.74 32.97 82.13 32.97"/></g></svg>