<svg xmlns="http://www.w3.org/2000/svg" viewBox="0 0 151 245"><defs><style>.cls-1{fill:#9ca9c2;}.cls-2{fill:#fff;}</style></defs><title>photo_base</title><g id="photo_base"><polygon class="cls-1" points="95.83 78.43 94.56 77.16 93.3 82.25 102.19 93.68 103.46 105.11 100.92 127.98 98.38 148.31 92.02 166.1 93.3 209.29 103.46 218.19 113.62 222 111.08 225.81 103.46 227.08 92.02 222 84.4 223.27 79.32 219.46 83.13 211.83 83.13 188.97 78.56 179.79 79.32 163.56 84.4 152.12 81.86 130.52 81.86 121.63 66.61 153.39 64.07 168.64 55.18 186.42 53.91 213.1 58.99 229.62 55.18 233.43 46.29 230.89 42.48 224.54 46.29 214.38 47.56 174.99 48.4 170.61 58.56 154.09 58.99 133.06 65.34 114.01 64.07 100.03 71.7 88.6 61.53 74.62 60.26 69.54 58.99 72.08 52.64 83.52 46.29 91.14 48.83 107.66 48.83 117.82 48.83 125.44 43.75 134.34 37.39 127.98 43.75 116.55 38.66 96.22 41.2 89.87 41.2 74.62 46.29 61.92 51.37 53.02 58.99 53.02 67.89 49.21 66.61 45.4 62.8 40.32 61.53 30.16 64.91 20.08 73.81 17.54 85.67 21.26 88.21 26.34 88.21 33.97 85.67 42.86 81.86 47.94 78.05 46.67 78.05 50.48 88.21 54.3 94.56 54.3 102.19 61.92 104.73 74.62 104.73 70.81 112.35 50.48 106 47.94 102.19 42.86 107.27 39.05 112.35 41.59 116.34 48.94 112.35 75.89 108.54 80.97 103.46 84.79 98.38 82.25 95.83 78.43"/><polygon class="cls-2" points="83.13 33.97 78.05 32.08 79.74 33.97 83.13 33.97"/></g></svg>