<svg id="图层_1" data-name="图层 1" xmlns="http://www.w3.org/2000/svg" viewBox="0 0 301 301"><defs><style>.cls-1{fill:none;stroke:#000;stroke-miterlimit:10;stroke-width:10px;}</style></defs><title>scLogo_EM</title><path class="cls-1" d="M226,116.5a60.55,60.55,0,0,0-17.61,2.61A60.55,60.55,0,0,0,211,101.5C211,68.09,172,41,150.5,41S90,68.09,90,101.5a60.55,60.55,0,0,0,2.61,17.61A60.55,60.55,0,0,0,75,116.5c-33.41,0-60.5,6.09-60.5,39.5S41.59,237.5,75,237.5a60.41,60.41,0,0,0,16.57-2.32C97.78,262,121.79,265,150.5,265s52.72-3,58.93-29.82A60.41,60.41,0,0,0,226,237.5c33.41,0,60.5-48.09,60.5-81.5S259.41,116.5,226,116.5ZM152,175l14.55-10.27L161,173.26Zm-17.55-10.27L150,175l-10-1.74ZM150,178.24l-15.55,5,5.54-8.53Zm16.55,5-15.55-5,10-3.51Z"/></svg>