<svg id="图层_1" data-name="图层 1" xmlns="http://www.w3.org/2000/svg" viewBox="0 0 301 301"><defs><style>.cls-1{fill:none;stroke:#000;stroke-miterlimit:10;stroke-width:10px;}</style></defs><title>scLogo_XH</title><path class="cls-1" d="M105.33,223.67c0,26.14,19.78,47.33,44.18,47.33s44.19-21.19,44.19-47.33S181.59,21,181.59,21,105.33,197.53,105.33,223.67Z"/><path class="cls-1" d="M191.55,176.35c1.28,22.4,2.15,40.3,2.15,47.32,0,.89,0,1.76-.07,2.63a30.37,30.37,0,0,0,21.61,9.15c17.46,0,31.62-15.16,31.62-33.86s1.56-145,1.56-145S208.84,133.7,191.55,176.35Z"/><path class="cls-1" d="M105.33,223.67c0-5.39,3.24-17.17,8.39-32.47.28-35.74,1.5-134.65,1.5-134.65s-64.81,126.33-64.81,145S64.57,235.45,82,235.45a30.66,30.66,0,0,0,23.31-11C105.34,224.2,105.33,223.94,105.33,223.67Z"/></svg>