<svg id="图层_1" data-name="图层 1" xmlns="http://www.w3.org/2000/svg" viewBox="0 0 301 301"><defs><style>.cls-1{fill:none;stroke:#000;stroke-miterlimit:10;stroke-width:10px;}</style></defs><title>scLogo_MR</title><path class="cls-1" d="M139,28A121,121,0,0,1,260,149a96.8,96.8,0,0,1-96.8,96.8,77.44,77.44,0,0,1-77.44-77.44,62,62,0,0,1,62-62A49.56,49.56,0,0,1,197.27,156a39.65,39.65,0,0,1-39.65,39.65"/><path class="cls-1" d="M162.76,273.8a121,121,0,0,1-121-121A96.8,96.8,0,0,1,138.56,56,77.44,77.44,0,0,1,216,133.44a62,62,0,0,1-61.95,61.95,49.56,49.56,0,0,1-49.56-49.56,39.65,39.65,0,0,1,39.65-39.65"/></svg>